<?xml version="1.0" standalone="no"?>
<!DOCTYPE svg PUBLIC "-//W3C//DTD SVG 20010904//EN"
 "http://www.w3.org/TR/2001/REC-SVG-20010904/DTD/svg10.dtd">
<svg version="1.0" xmlns="http://www.w3.org/2000/svg"
 width="2560.000000pt" height="1440.000000pt" viewBox="0 0 2560.000000 1440.000000"
 preserveAspectRatio="xMidYMid meet">

<g transform="translate(0.000000,1440.000000) scale(0.100000,-0.100000)"
fill="#000000" stroke="none">
<path d="M0 7200 l0 -7200 12800 0 12800 0 0 7200 0 7200 -12800 0 -12800 0 0
-7200z m20680 -5 l0 -3215 -7875 0 -7875 0 0 3215 0 3215 7875 0 7875 0 0
-3215z"/>
<path d="M5000 7195 l0 -3145 7805 0 7805 0 0 3145 0 3145 -7805 0 -7805 0 0
-3145z m7975 2591 c312 -154 557 -410 725 -759 33 -67 60 -120 60 -117 0 3
-31 205 -70 449 -38 244 -70 450 -70 457 0 12 78 14 460 14 253 0 460 -3 460
-7 0 -5 7 -51 15 -103 9 -52 59 -367 111 -700 107 -680 120 -759 233 -1477 45
-281 81 -521 81 -532 0 -12 4 -21 8 -21 4 0 43 224 86 498 43 273 89 562 102
642 12 80 77 490 143 911 67 421 121 771 121 777 0 9 312 12 1320 12 l1320 0
0 -545 0 -545 -395 0 -395 0 0 -515 0 -515 395 0 395 0 0 -535 0 -535 -397 -2
c-219 -2 -397 -6 -395 -10 1 -5 2 -228 2 -498 l0 -490 395 0 395 0 0 -535 0
-535 -870 0 -870 0 -1 2528 c0 1390 -2 2523 -5 2517 -2 -5 -62 -383 -134 -840
-72 -456 -187 -1185 -256 -1620 -165 -1043 -349 -2211 -380 -2410 -14 -88 -29
-163 -33 -168 -4 -4 -250 -6 -547 -5 l-539 3 -261 1655 c-144 910 -265 1678
-269 1705 -8 47 -9 44 -21 -74 -47 -441 -220 -856 -486 -1160 -40 -46 -77 -89
-82 -96 -6 -8 20 -103 76 -276 326 -1000 568 -1749 568 -1753 0 -4 -210 -5
-466 -4 l-467 3 -159 490 c-87 270 -208 643 -269 830 -60 187 -114 350 -119
363 -8 19 -17 22 -65 22 l-55 0 0 -855 0 -855 -913 0 -913 0 -33 238 c-18 130
-35 247 -38 260 l-5 22 -368 0 c-204 0 -371 -4 -374 -9 -6 -8 -76 -472 -76
-498 0 -10 -188 -13 -905 -13 l-905 0 -1 1008 c-1 599 -5 995 -10 977 -5 -16
-22 -97 -39 -180 -17 -82 -42 -202 -55 -265 -13 -63 -67 -324 -120 -580 -53
-256 -107 -519 -121 -585 -14 -66 -37 -178 -52 -250 l-27 -130 -258 -3 c-141
-1 -257 0 -257 3 0 3 -16 78 -35 168 -19 89 -89 425 -155 747 -115 556 -149
723 -202 975 l-23 110 -3 -997 -2 -998 -480 0 -480 0 0 2630 0 2630 603 0 602
0 78 -417 c295 -1587 352 -1883 359 -1866 4 10 68 347 142 748 233 1252 266
1428 277 1483 l10 52 600 0 599 0 0 -2417 c0 -1329 3 -2414 6 -2410 3 3 12 50
20 104 12 86 164 1145 530 3688 57 402 114 799 126 883 l22 152 603 0 c332 0
603 -4 603 -8 0 -9 14 -108 385 -2687 119 -825 244 -1695 278 -1933 l62 -434
3 2536 2 2536 718 0 718 0 109 -54z m6307 -2053 l3 -2098 403 -3 402 -2 -2
-528 -3 -527 -847 -3 -848 -2 0 2630 0 2630 445 0 445 0 2 -2097z"/>
<path d="M12370 8071 c0 -640 2 -781 13 -781 29 0 125 34 192 67 94 48 217
171 267 268 114 220 137 551 56 805 -73 232 -245 378 -485 415 l-43 7 0 -781z"/>
<path d="M10090 7663 c0 -12 -19 -145 -135 -953 -47 -327 -88 -607 -91 -622
l-6 -28 236 0 c130 0 236 2 236 4 0 2 -20 145 -46 317 -25 173 -76 532 -115
798 -59 414 -79 535 -79 484z"/>
</g>
</svg>
